<?xml version="1.0" encoding="UTF-8"?>
<svg id="katman_1" data-name="katman 1" xmlns="http://www.w3.org/2000/svg" xmlns:xlink="http://www.w3.org/1999/xlink" viewBox="0 0 672.37 655.63">
  <defs>
    <style>
      .cls-1 {
        fill: url(#Adsız_degrade_38-6);
      }

      .cls-2 {
        fill: url(#Adsız_degrade_38-7);
      }

      .cls-3 {
        fill: url(#Adsız_degrade_38-11);
      }

      .cls-4 {
        fill: url(#Adsız_degrade_38-9);
      }

      .cls-5 {
        fill: url(#Adsız_degrade_38-3);
      }

      .cls-6 {
        fill: url(#Adsız_degrade_38-14);
      }

      .cls-7 {
        fill: url(#Adsız_degrade_38-10);
      }

      .cls-8 {
        fill: url(#Adsız_degrade_38-13);
      }

      .cls-9 {
        fill: url(#Adsız_degrade_38);
      }

      .cls-10 {
        fill: url(#Adsız_degrade_38-12);
      }

      .cls-11 {
        fill: url(#Adsız_degrade_38-4);
      }

      .cls-12 {
        fill: url(#Adsız_degrade_38-8);
      }

      .cls-13 {
        fill: url(#Adsız_degrade_38-2);
      }

      .cls-14 {
        fill: url(#Adsız_degrade_38-5);
      }
    </style>
    <linearGradient id="Adsız_degrade_38" data-name="Adsız degrade 38" x1="619.68" y1="105.81" x2="-44.32" y2="680.81" gradientUnits="userSpaceOnUse">
      <stop offset="0" stop-color="#e8f4ff"/>
      <stop offset=".49" stop-color="#0070c7"/>
      <stop offset="1" stop-color="#003fba"/>
    </linearGradient>
    <linearGradient id="Adsız_degrade_38-2" data-name="Adsız degrade 38" x1="527.44" y1="-.71" x2="-136.56" y2="574.29" xlink:href="#Adsız_degrade_38"/>
    <linearGradient id="Adsız_degrade_38-3" data-name="Adsız degrade 38" x1="548.59" y1="23.71" x2="-115.41" y2="598.71" xlink:href="#Adsız_degrade_38"/>
    <linearGradient id="Adsız_degrade_38-4" data-name="Adsız degrade 38" x1="566.07" y1="43.9" x2="-97.93" y2="618.9" xlink:href="#Adsız_degrade_38"/>
    <linearGradient id="Adsız_degrade_38-5" data-name="Adsız degrade 38" x1="716.08" y1="217.14" x2="52.08" y2="792.14" xlink:href="#Adsız_degrade_38"/>
    <linearGradient id="Adsız_degrade_38-6" data-name="Adsız degrade 38" x1="607.88" y1="92.18" x2="-56.12" y2="667.18" xlink:href="#Adsız_degrade_38"/>
    <linearGradient id="Adsız_degrade_38-7" data-name="Adsız degrade 38" x1="776" y1="286.32" x2="112" y2="861.32" xlink:href="#Adsız_degrade_38"/>
    <linearGradient id="Adsız_degrade_38-8" data-name="Adsız degrade 38" x1="749.45" y1="255.67" x2="85.45" y2="830.67" xlink:href="#Adsız_degrade_38"/>
    <linearGradient id="Adsız_degrade_38-9" data-name="Adsız degrade 38" x1="730.49" y1="233.77" x2="66.49" y2="808.77" xlink:href="#Adsız_degrade_38"/>
    <linearGradient id="Adsız_degrade_38-10" data-name="Adsız degrade 38" x1="733.74" y1="237.52" x2="69.74" y2="812.52" xlink:href="#Adsız_degrade_38"/>
    <linearGradient id="Adsız_degrade_38-11" data-name="Adsız degrade 38" x1="687.92" y1="184.61" x2="23.92" y2="759.61" xlink:href="#Adsız_degrade_38"/>
    <linearGradient id="Adsız_degrade_38-12" data-name="Adsız degrade 38" x1="631.28" y1="119.21" x2="-32.72" y2="694.21" xlink:href="#Adsız_degrade_38"/>
    <linearGradient id="Adsız_degrade_38-13" data-name="Adsız degrade 38" x1="552.68" y1="28.43" x2="-111.32" y2="603.43" xlink:href="#Adsız_degrade_38"/>
    <linearGradient id="Adsız_degrade_38-14" data-name="Adsız degrade 38" x1="575.59" y1="54.9" x2="-88.41" y2="629.9" xlink:href="#Adsız_degrade_38"/>
  </defs>
  <path class="cls-9" d="M569.36,116.68c-.99.06-3.69.06-6.49.01,17.01-2.59,34.25-7.11,51.5-8,135.95-6.99-5.09,155.55-40,192-82.31,85.95-192.17,168.77-295.84,227.16-55.7,31.37-157.41,80.35-221.22,76.88-107.72-5.87-36.98-125.69-1.95-172.04,1.43.71-.2,2.45-.65,3.35-22.09,43.58-64.63,128.7,19.66,134.64,68.24,4.81,182.57-62.14,240.01-98.97,99.73-63.95,226.62-170.65,293.29-268.71,12.55-18.46,26.68-40.15,18.96-63.59-4.22-12.8-23.59-22.73-36.27-22.73-6.86,0-14.22-.39-21,0Z"/>
  <path class="cls-13" d="M316.86,23.68l-11,1C143.86,30.01,26.78,198,83.89,351.22c-1.51,13.65-15.03,16.2-21.75,3.67-24.3-45.35-18.06-122.72-1.56-169.98C119.04,17.47,317.83-51.64,468.78,42.26c52.43,32.61,109.51,104.09,113.07,167.93.5,8.91-4.53,18.49-14.36,13.35-6.69-3.5-10.82-28.59-13.36-36.63-33.1-104.96-130.65-161.01-237.27-163.23Z"/>
  <path class="cls-5" d="M523.1,284.43c-2.81-2.85-2.66-21.54-3.37-27.13-8.8-69.48-36-122.88-98.57-157.43C285.38,24.92,109.55,122.32,118.82,281.22c2.64,45.24,24.61,68.08-7.57,112.35-5.47,7.53-20.18,26.88-30.44,17.65-11.21-10.08,4.68-20.8,10.46-28.63,26.75-36.17,7.15-59.41,4.59-96.43-7.23-104.7,62.32-199.9,162.77-227.21,112.25-30.51,237.93,27.78,271.71,141.72,5.11,17.22,12.45,50.17,10.51,67.5-.69,6.13-11.95,22.14-17.76,16.25Z"/>
  <path class="cls-11" d="M463.87,342.68c.76-17.92,6.17-35.39,7.04-53.45,5.12-106.58-76.25-180.79-182.23-160.23-77.41,15.02-129.57,84.76-116.56,163.93,2.48,15.1,8.81,29.35,9.79,45.21,2.93,47.75-25.63,92.02-63.73,118.36-7.02,4.85-16.73,13.32-24.83,6.2-12.83-11.28,13.93-24.77,21.53-31.5,32.64-28.93,50.23-63.04,41.52-107.55-8.02-40.98-15.88-64.06-1.57-106.5,52.54-155.84,292.76-153.01,331.74,10.33,5.52,23.13,10.59,70.55,2.09,92.5-1.74,4.49-21.65,25.96-24.79,22.7Z"/>
  <path class="cls-14" d="M460.86,421.69c-39.59,80.81-111.8,146.72-187.08,194.41-5.98,3.79-23.37,15.63-28.89,17.11-10.71,2.88-17.73-9.11-10.06-17.06,61.51-38.76,120.92-83.27,167.01-139.99,11.34-13.96,21.55-32.7,35.69-43.31,3.27-2.45,20.08-14.04,23.33-11.16Z"/>
  <path class="cls-1" d="M142.88,547.67c-.87-2.41-.83-4.84.25-7.22,2.46-5.45,27.93-20.29,34.65-25.36,55.89-42.23,102.71-112.1,88.6-185.43-1.36-7.09-8.26-18.71,2.46-21.52,14.27-3.73,17.44,9.11,19.73,20.32,15.31,74.85-39.42,173.01-107.34,205.06-4.44,2.1-36.67,15.34-38.34,14.13Z"/>
  <path class="cls-2" d="M528.61,466.89c7.02-1.36,11.33,3.54,11.34,10.29.01,9.06-16.16,34.71-21.67,43.41-24.52,38.74-58.15,76.44-93.94,105.06-5.4,4.32-24.57,19.56-29.74,21.26-10.55,3.48-18.12-3.37-15.26-14.26,1.62-6.17,15.01-12.47,20.44-16.56,43.68-32.84,78.27-70.48,106.89-117.11,4.75-7.74,10.71-22.71,16.33-28.67,1.48-1.57,3.47-3.01,5.6-3.43Z"/>
  <path class="cls-12" d="M455.86,520.68c-35.57,45.12-82.14,85.1-130.48,116.02-6,3.84-28.67,18.68-34.11,18.92-9.49.41-15.38-10.38-7.95-17.98,7.64-7.82,32.9-20.59,43.85-28.15,36.91-25.46,70.89-55.35,100.68-88.82,2.09-1.77,4.34-3.48,6.74-5.12.97-5.56,5.09-7.61,10.35-6.88,8.76-4.75,12.4-.75,10.91,12.01Z"/>
  <path class="cls-4" d="M455.86,520.68c-3.88-2.92-1.46-8.23-2.08-10.35-1.12-3.82-6.29-.08-8.47.3-2.5.44-7.73-.99-8.92,1.99-.41,1.04.93,2.94.07,4.1s-3.31.78-4.53,1.52c-1.64,1-3.62,4.62-4.07,2.43,25.18-29.44,46.8-62.11,63.18-97.32,6.12-13.16,12.94-37.5,19.99-48.01,3.08-4.6,16.01-13.5,19.34-6.67,2.67,5.47-3.67,22.12-5.75,28.26-14.63,43.01-40.7,88.16-68.75,123.75Z"/>
  <path class="cls-7" d="M576.63,320.86c10.24-1.32,9.57,12.57,9.1,19.19-1.53,21.76-9.14,50.38-15.61,71.4-2.11,6.86-9.54,31.29-13.9,35.1-7.27,6.36-19.79,1.09-17.13-9.12,5.19-15.98,10.55-32.02,14.69-48.32,4.49-17.68,6.44-42.19,12.04-57.96,1.85-5.2,4.88-9.52,10.81-10.28Z"/>
  <path class="cls-3" d="M329.86,511.69c.21,2.06-1.33,3.53-2.48,5.01-15.44,19.99-56.1,49.63-77.8,64.2-9.89,6.64-35.34,23.5-45.69,26.31s-18.23-9.93-10.39-17.39c35.28-20.63,70.14-42.16,105.69-62.31,3.2-1.81,29.43-17.02,30.67-15.82Z"/>
  <path class="cls-10" d="M323.62,306.94c-3.43.45-8.04,1.87-8.76,5.74l.04,80.54c-.01.2-.03.41-.04.61v35.84c2.95,8.86,15.04,5.84,22.21,4.71,31.98-5.04,75.94-31.34,77.84-67.16,2.87-53.96-47.29-66.07-91.29-60.29ZM391.59,377.91c-5.01,26.43-29.37,39.4-54.73,35.77v-84c.83-.84,1.03-1.97,2.47-2.08,35.58-2.55,59.66,11.25,52.25,50.3Z"/>
  <path class="cls-8" d="M308.86,229.68c.08-18.8,0-37.63-.06-56.44-3.21-11.42-18.68-11.4-21.89,0-.18,19.14.04,38.31-.06,57.44-.04,6.65.03,13.34-.01,19.99l-12.99-18.99c-4.03-6.76-7.83-13.74-12.19-20.31-3.31-4.99-16.56-25.93-20.76-27.23-10.5-3.26-15.75,7.89-20.47,15.63-22.38,36.66-21.46,68.58-12.58,108.92,1.59,7.22,3.98,14.17,4.87,21.63,5.71,47.8-14.51,92.35-47.87,125.37-4.11,3.85-8,8.05-12,12-2.25,1.35-4.25,3.02-6,5-10.2,6.92-20.58,13.68-30.53,20.97-7.24,10.13,2.27,19.48,13.56,16.56,6.16-1.59,24.87-15.64,29.97-20.53,52.78-41.55,85.16-102.36,73.52-171.02-2.69-15.9-9-32.3-9.57-48.43-.25-7.11.05-13.66,1.05-20.55.83-5.17,2.25-10.7,3.72-15.78.6-2.09,5.62-15.67,6.33-16.17,1.17-.83,3.04.56,4.02,1.39,5.61,4.72,13.48,16.35,17.93,23.57l28.48,43.02c8.01,8.51,21.74,5.8,23.43-6.61,1.86-13.68.03-34.81.09-49.41Z"/>
  <path class="cls-6" d="M422.76,281.28c-5.7-14.23-23.24-33.53-31.89-46.6-.67-1.01-3.08-5.35-3.71-7.37-.15-.48-.06-1.01.23-1.43l23.26-33.63c.08-.11.14-.23.19-.36,3.51-8.73-3.76-14.57-12.42-13.15-7.39,1.22-18.35,21.08-22.16,28.68-.21.42-.58.72-1.03.86h0c-.78.23-1.61-.12-1.98-.85-5.77-11.35-13.37-25.82-21.4-35.23-8.52-9.98-33.58-10.84-23.51,4.14.17.25-.22-.48,0,0l32.95,49.02c.13.2.24.41.26.65.19,2.08-2.51,4.79-3.68,6.66-8.77,14.05-19.12,27.17-28.1,41.1-.08.12-.14.25-.19.38-2.18,6.04-.04,11.72,6.77,12.54,7.32.88,9.13-.24,13.36-5.69,2.79-3.6,23.06-33.22,23.17-35.33,1.14-1.37.74-3.13,2.21-.73,7.98,13.06,18.15,30.93,27.36,42.66,2.38,3.03,4.84,5.61,8.91,6.08,8.5,1,14.97-3.55,11.42-12.42Z"/>
</svg>